<?xml version="1.0" encoding="UTF-8"?>
<svg width="55px" height="206px" viewBox="0 0 55 206" version="1.1" xmlns="http://www.w3.org/2000/svg" xmlns:xlink="http://www.w3.org/1999/xlink">
    <title>diamond--without-spiral</title>
    <g id="diamond" stroke="none" stroke-width="1" fill="none" fill-rule="evenodd">
        <g id="Group-2" transform="translate(-23.950918, -0.022228)">
            <g id="Group" transform="translate(51.646217, 103.274289) rotate(-15.000000) translate(-51.646217, -103.274289) translate(24.971217, 72.444289)" fill="#D8D8D8" fill-rule="nonzero">
                <path d="M13.62,0 C26.49,13.83 38.19,18.46 53.35,10.29" id="Path"></path>
                <path d="M39.51,61.66 C27.94,54.82 14.41,51 0,50.86" id="Path"></path>
            </g>
            <line x1="78.3609179" y1="3.66222752" x2="24.8209179" y2="202.512228" id="Path" stroke="#D8D8D8" stroke-width="0.3" transform="translate(51.590918, 103.087228) rotate(-15.000000) translate(-51.590918, -103.087228) "></line>
            <line x1="78.2407476" y1="110.260933" x2="24.9507476" y2="95.9109334" id="Path" stroke="#D8D8D8" stroke-width="0.3" transform="translate(51.595748, 103.085933) rotate(-15.000000) translate(-51.595748, -103.085933) "></line>
            <line x1="78.4038756" y1="56.7809814" x2="25.6491468" y2="149.278841" id="Path" stroke="#D8D8D8" stroke-width="0.3" transform="translate(51.963770, 103.280981) rotate(-15.000000) translate(-51.963770, -103.280981) "></line>
            <line x1="51.7065712" y1="156.274969" x2="51.9220476" y2="49.6992592" id="Path" stroke="#D8D8D8" stroke-width="0.3" transform="translate(51.922048, 103.199259) rotate(-15.000000) translate(-51.922048, -103.199259) "></line>
            <line x1="65.4985551" y1="-1.68102912" x2="65.4371754" y2="104.583537" id="Path-2" stroke="#D8D8D8" transform="translate(65.467865, 51.451254) rotate(-15.000000) translate(-65.467865, -51.451254) "></line>
            <g id="Group" transform="translate(51.745863, 103.646170) rotate(-15.000000) translate(-51.745863, -103.646170) translate(25.070863, 72.671170)" stroke="#D8D8D8" stroke-width="2">
                <path d="M53.35,10.55 C33.87,18.02 21.88,10.63 13.48,0" id="Path"></path>
                <path d="M0,51.38 C14.41,51.39 27.57,55.21 39.2,61.95" id="Path"></path>
            </g>
            <path d="M76.3609179,11.1222275 L76.2409179,109.722228 L26.8409179,195.052228 L26.9609179,96.4522275 L76.3609179,11.1222275 M78.3609179,3.66222752 L24.9509179,95.9122275 L24.8209179,202.512228 L78.2309179,110.262228 L78.3609179,3.66222752 L78.3609179,3.66222752 L78.3609179,3.66222752 Z" id="Shape" fill="#D8D8D8" fill-rule="nonzero" transform="translate(51.590918, 103.087228) rotate(-15.000000) translate(-51.590918, -103.087228) "></path>
        </g>
    </g>
</svg>