<?xml version="1.0" encoding="UTF-8"?>
<svg width="213px" height="185px" viewBox="0 0 213 185" version="1.1" xmlns="http://www.w3.org/2000/svg" xmlns:xlink="http://www.w3.org/1999/xlink">
    <title>hexagon</title>
    <g id="hexagon" stroke="none" stroke-width="1" fill="none" fill-rule="evenodd">
        <g id="Group" transform="translate(0.230000, 0.000000)">
            <g transform="translate(33.060000, 0.100000)" fill="#FFFFFF" fill-rule="nonzero" id="Path">
                <path d="M166.33,116.25 C154.91,109.72 140.7,113.95 134.16,125.37 L118.78,151.75 L166.33,116.25 Z"></path>
                <path d="M99.51,0 C99.44,13.15 88.65,23.68 75.5,23.61 L44.96,23.7 L99.51,0 L99.51,0 Z"></path>
                <path d="M92.49,122.77 C114.47,125.24 128.84,112.02 128.830005,96.72 C128.830005,88.93 126.65,84.08 124.51,80.55 L0,111.42 C24.69,112.79 92.49,122.77 92.49,122.77 Z"></path>
                <path d="M124.51,80.55 L140.91,24.3 C138.22,23.44 134.96,22.92 131.98,22.9394432 C116.79,23.03 105.56,35.44 104.65,50.6 C103.8,64.72 119.62,74.83 124.51,80.55 L124.51,80.55 Z"></path>
            </g>
            <path d="M106.71,0.07 C153.01,7.08 187.79,44.15 181.5,92.24 C176.47,130.71 142.3,157.78 105.19,152.7 C75.5,148.64 54.7,120.39 58.73,89.61 C61.95,64.99 83.82,47.66 107.57,50.91 C126.57,53.51 139.88,71.59 137.31,91.28 C135.25,107.04 121.25,118.13 106.05,116.05 C93.89,114.39 85.37,102.82 87.02,90.21 C88.34,80.12 97.3,73.03 107.02,74.36 C114.8,75.43 120.26,82.83 119.2,90.9 C118.36,97.35 112.62,101.9 106.4,101.04 C101.42,100.36 97.93,95.62 98.61,90.46 C99.15,86.33 102.82,83.42 106.8,83.97 C109.99,84.41 112.22,87.44 111.79,90.74 C111.44,93.38 109.1,95.24 106.55,94.9 C104.51,94.62 103.08,92.68 103.36,90.56 C103.58,88.87 105.08,87.68 106.72,87.9 C108.03,88.08 108.94,89.32 108.76,90.67 C108.62,91.75 107.66,92.51 106.61,92.37" id="Path" stroke="#FFFFFF" stroke-width="0.3"></path>
            <g transform="translate(0.000000, 0.000000)" id="Path" stroke="#FFFFFF" stroke-width="0.3">
                <line x1="213.19" y1="92.51" x2="0" y2="92.26"></line>
                <line x1="106.71" y1="0.07" x2="106.48" y2="184.7"></line>
                <line x1="160" y1="0.13" x2="53.18" y2="184.64"></line>
                <line x1="26.7" y1="46.13" x2="186.49" y2="138.64"></line>
                <line x1="53.41" y1="-2.84217094e-14" x2="159.78" y2="184.76"></line>
                <line x1="26.59" y1="138.45" x2="186.6" y2="46.32"></line>
            </g>
            <g transform="translate(13.850000, 0.100000)" id="Path" stroke="#FFFFFF" stroke-width="2">
                <path d="M135.67,73.52 C128.24,68.5899939 123.35,60.14 123.359985,50.56 C123.38,35.37 135.71,23.08 150.89,23.0899939 C153.34,23.0899939 155.71,23.42 157.96,24.02 C158.45,24.15 159.85,24.5 160.33,24.66"></path>
                <line x1="25.43" y1="24.3" x2="94.29" y2="24.39"></line>
                <path d="M118.22,0 C118.2,13.15 107.45,24.4 94.3,24.3900067"></path>
                <line x1="118.33" y1="184.66" x2="152.54" y2="125.56"></line>
                <path d="M185.19,116.85 C173.81,110.26 159.12,114.18 152.53,125.56"></path>
                <path d="M135.67,73.52 C142.92,78.69 147.52,87.29 147.2,96.86 C146.68,112.04 134.2,123.43 118.78,123.410026 C86.07,123.37 20.18,102.91 0,116.23"></path>
            </g>
            <path d="M54.56,2.01 L158.85,2.14 L210.89,92.52 L158.64,182.77 L54.35,182.64 L2.31,92.26 L54.56,2.01 M53.41,0 L0,92.25 L53.19,184.63 L159.79,184.76 L213.2,92.51 L160.01,0.13 L53.41,0 L53.41,0 L53.41,0 Z" id="Shape" fill="#FFFFFF" fill-rule="nonzero"></path>
        </g>
    </g>
</svg>