<?xml version="1.0" encoding="UTF-8"?>
<svg width="107px" height="106px" viewBox="0 0 107 106" version="1.1" xmlns="http://www.w3.org/2000/svg" xmlns:xlink="http://www.w3.org/1999/xlink">
    <title>square--without-spiral</title>
    <g id="square" stroke="none" stroke-width="1" fill="none" fill-rule="evenodd">
        <g id="Group" transform="translate(0.280000, -0.370000)">
            <g transform="translate(0.030000, 0.100000)" fill="#FFFFFF" fill-rule="nonzero" id="Path">
                <path d="M79.15,106.6 C67.66,86.61 88.26,68.65 106.6,79.12"></path>
                <path d="M79.27,0 C57.23,37.81 39.58,56.1 0,79.04"></path>
            </g>
            <g transform="translate(0.010000, 0.000000)" id="Path" stroke="#FFFFFF" stroke-width="0.3">
                <line x1="0" y1="106.6" x2="106.72" y2="0.13"></line>
                <line x1="106.59" y1="106.73" x2="0.12" y2="5.68434189e-14"></line>
                <line x1="53.29" y1="106.67" x2="53.42" y2="0.07"></line>
                <line x1="106.66" y1="53.43" x2="0.06" y2="53.3"></line>
            </g>
            <g transform="translate(0.040000, 0.110000)" id="Path" stroke="#FFFFFF" stroke-width="2">
                <path d="M106.6,78.46 C88.45,68.92 68.58,86.88 79.91,106.59"></path>
                <path d="M0,79.21 C39.58,56.27 57.78,37.81 79.83,0"></path>
            </g>
            <path d="M2.13,2.01 L104.73,2.13 L104.61,104.73 L2.01,104.61 L2.13,2.01 M0.13,0 L0,106.6 L106.6,106.73 L106.73,0.13 L0.13,0 L0.13,0 L0.13,0 Z" id="Shape" fill="#FFFFFF" fill-rule="nonzero"></path>
        </g>
    </g>
</svg>